<svg width="15" height="15" viewBox="0 0 15 15" fill="none" xmlns="http://www.w3.org/2000/svg">
<g clip-path="url(#clip0_369_10)">
<path d="M12.6562 5.5125C12.3938 5.5125 12.1875 5.30625 12.1875 5.04375V1.40625C12.1875 1.14375 11.9812 0.9375 11.7188 0.9375H3.28125C3.01875 0.9375 2.8125 1.14375 2.8125 1.40625V3.28125C2.8125 3.54375 2.60625 3.75 2.34375 3.75C2.08125 3.75 1.875 3.54375 1.875 3.28125V1.40625C1.875 0.628125 2.50313 0 3.28125 0H11.7188C12.4969 0 13.125 0.628125 13.125 1.40625V5.04375C13.125 5.30625 12.9187 5.5125 12.6562 5.5125Z" fill="black"/>
<path d="M13.5938 15H1.40625C0.628125 15 0 14.3719 0 13.5938V4.21875C0 3.44063 0.628125 2.8125 1.40625 2.8125H5.85938C6.00938 2.8125 6.15 2.87813 6.23438 3L7.5 4.6875H13.5938C14.3719 4.6875 15 5.31562 15 6.09375V13.5938C15 14.3719 14.3719 15 13.5938 15ZM1.40625 3.75C1.14375 3.75 0.9375 3.95625 0.9375 4.21875V13.5938C0.9375 13.8562 1.14375 14.0625 1.40625 14.0625H13.5938C13.8562 14.0625 14.0625 13.8562 14.0625 13.5938V6.09375C14.0625 5.83125 13.8562 5.625 13.5938 5.625H7.26562C7.19259 5.62653 7.12029 5.61026 7.05495 5.57759C6.98962 5.54492 6.93322 5.49684 6.89062 5.4375L5.625 3.75H1.40625Z" fill="black"/>
<path d="M5.15625 12.1875H3.28125C3.01875 12.1875 2.8125 11.9812 2.8125 11.7188C2.8125 11.4562 3.01875 11.25 3.28125 11.25H5.15625C5.41875 11.25 5.625 11.4562 5.625 11.7188C5.625 11.9812 5.41875 12.1875 5.15625 12.1875Z" fill="black"/>
</g>
<defs>
<clipPath id="clip0_369_10">
<rect width="15" height="15" fill="white"/>
</clipPath>
</defs>
</svg>
