<svg width="35" height="35" viewBox="0 0 35 35" fill="none" xmlns="http://www.w3.org/2000/svg">
<path d="M32.8125 28.4375H30.625V15.7978C30.625 15.4951 30.5622 15.1956 30.4406 14.9184C30.3189 14.6412 30.141 14.3922 29.9182 14.1873L18.9807 3.86777C18.9753 3.8631 18.9703 3.85808 18.9656 3.85273C18.5629 3.4865 18.0382 3.28357 17.4938 3.28357C16.9495 3.28357 16.4248 3.4865 16.0221 3.85273L16.007 3.86777L5.08184 14.1873C4.85898 14.3922 4.68109 14.6412 4.55942 14.9184C4.43775 15.1956 4.37495 15.4951 4.375 15.7978V28.4375H2.1875C1.89742 28.4375 1.61922 28.5527 1.4141 28.7578C1.20898 28.963 1.09375 29.2412 1.09375 29.5312C1.09375 29.8213 1.20898 30.0995 1.4141 30.3046C1.61922 30.5098 1.89742 30.625 2.1875 30.625H32.8125C33.1026 30.625 33.3808 30.5098 33.5859 30.3046C33.791 30.0995 33.9062 29.8213 33.9062 29.5312C33.9062 29.2412 33.791 28.963 33.5859 28.7578C33.3808 28.5527 33.1026 28.4375 32.8125 28.4375ZM6.5625 15.7978L6.57754 15.7842L17.5 5.46874L28.4238 15.7814L28.4389 15.7951V28.4375H21.875V21.875C21.875 21.2948 21.6445 20.7384 21.2343 20.3282C20.8241 19.918 20.2677 19.6875 19.6875 19.6875H15.3125C14.7323 19.6875 14.1759 19.918 13.7657 20.3282C13.3555 20.7384 13.125 21.2948 13.125 21.875V28.4375H6.5625V15.7978ZM19.6875 28.4375H15.3125V21.875H19.6875V28.4375Z" fill="black"/>
</svg>
